<?xml version="1.0" standalone="no"?>
<svg xmlns:xlink="http://www.w3.org/1999/xlink" opacity="0.5" id="wave" style="transform:rotate(0deg); transition: 0.3s" viewBox="0 0 1440 490" version="1.1" xmlns="http://www.w3.org/2000/svg"><defs><linearGradient id="sw-gradient-0" x1="0" x2="0" y1="1" y2="0"><stop stop-color="rgba(52, 122, 122, 1)" offset="0%"/><stop stop-color="rgba(140.852, 193.897, 193.897, 1)" offset="100%"/></linearGradient></defs><path style="transform:translate(0, 0px); opacity:1" fill="url(#sw-gradient-0)" d="M0,147L40,122.5C80,98,160,49,240,73.5C320,98,400,196,480,220.5C560,245,640,196,720,179.7C800,163,880,180,960,212.3C1040,245,1120,294,1200,294C1280,294,1360,245,1440,245C1520,245,1600,294,1680,261.3C1760,229,1840,114,1920,81.7C2000,49,2080,98,2160,163.3C2240,229,2320,310,2400,285.8C2480,261,2560,131,2640,106.2C2720,82,2800,163,2880,220.5C2960,278,3040,310,3120,334.8C3200,359,3280,376,3360,375.7C3440,376,3520,359,3600,343C3680,327,3760,310,3840,302.2C3920,294,4000,294,4080,302.2C4160,310,4240,327,4320,318.5C4400,310,4480,278,4560,228.7C4640,180,4720,114,4800,106.2C4880,98,4960,147,5040,187.8C5120,229,5200,261,5280,294C5360,327,5440,359,5520,326.7C5600,294,5680,196,5720,147L5760,98L5760,490L5720,490C5680,490,5600,490,5520,490C5440,490,5360,490,5280,490C5200,490,5120,490,5040,490C4960,490,4880,490,4800,490C4720,490,4640,490,4560,490C4480,490,4400,490,4320,490C4240,490,4160,490,4080,490C4000,490,3920,490,3840,490C3760,490,3680,490,3600,490C3520,490,3440,490,3360,490C3280,490,3200,490,3120,490C3040,490,2960,490,2880,490C2800,490,2720,490,2640,490C2560,490,2480,490,2400,490C2320,490,2240,490,2160,490C2080,490,2000,490,1920,490C1840,490,1760,490,1680,490C1600,490,1520,490,1440,490C1360,490,1280,490,1200,490C1120,490,1040,490,960,490C880,490,800,490,720,490C640,490,560,490,480,490C400,490,320,490,240,490C160,490,80,490,40,490L0,490Z"/><defs><linearGradient id="sw-gradient-1" x1="0" x2="0" y1="1" y2="0"><stop stop-color="rgba(52, 122, 122, 1)" offset="0%"/><stop stop-color="rgba(52, 122, 122, 1)" offset="100%"/></linearGradient></defs><path style="transform:translate(0, 50px); opacity:0.9" fill="url(#sw-gradient-1)" d="M0,147L40,155.2C80,163,160,180,240,179.7C320,180,400,163,480,138.8C560,114,640,82,720,89.8C800,98,880,147,960,138.8C1040,131,1120,65,1200,57.2C1280,49,1360,98,1440,106.2C1520,114,1600,82,1680,106.2C1760,131,1840,212,1920,220.5C2000,229,2080,163,2160,187.8C2240,212,2320,327,2400,359.3C2480,392,2560,343,2640,310.3C2720,278,2800,261,2880,261.3C2960,261,3040,278,3120,294C3200,310,3280,327,3360,294C3440,261,3520,180,3600,155.2C3680,131,3760,163,3840,155.2C3920,147,4000,98,4080,65.3C4160,33,4240,16,4320,40.8C4400,65,4480,131,4560,155.2C4640,180,4720,163,4800,155.2C4880,147,4960,147,5040,179.7C5120,212,5200,278,5280,285.8C5360,294,5440,245,5520,212.3C5600,180,5680,163,5720,155.2L5760,147L5760,490L5720,490C5680,490,5600,490,5520,490C5440,490,5360,490,5280,490C5200,490,5120,490,5040,490C4960,490,4880,490,4800,490C4720,490,4640,490,4560,490C4480,490,4400,490,4320,490C4240,490,4160,490,4080,490C4000,490,3920,490,3840,490C3760,490,3680,490,3600,490C3520,490,3440,490,3360,490C3280,490,3200,490,3120,490C3040,490,2960,490,2880,490C2800,490,2720,490,2640,490C2560,490,2480,490,2400,490C2320,490,2240,490,2160,490C2080,490,2000,490,1920,490C1840,490,1760,490,1680,490C1600,490,1520,490,1440,490C1360,490,1280,490,1200,490C1120,490,1040,490,960,490C880,490,800,490,720,490C640,490,560,490,480,490C400,490,320,490,240,490C160,490,80,490,40,490L0,490Z"/></svg>